<svg width="168" height="43" viewBox="0 0 168 43" fill="none" xmlns="http://www.w3.org/2000/svg">
<path d="M47.42 29V15.06H49.74V20.76H56.02V15.06H58.34V29H56.02V22.9H49.74V29H47.42ZM67.4295 29L67.2695 27.34V22.78C67.2695 22.14 67.0762 21.66 66.6895 21.34C66.3029 21.0067 65.7629 20.84 65.0695 20.84C64.5362 20.84 64.0095 20.9467 63.4895 21.16C62.9829 21.36 62.5162 21.6733 62.0895 22.1L60.8495 20.64C61.4895 20.04 62.1695 19.6133 62.8895 19.36C63.6095 19.0933 64.3962 18.96 65.2495 18.96C66.5829 18.96 67.6162 19.3 68.3495 19.98C69.0962 20.6467 69.4695 21.58 69.4695 22.78V29H67.4295ZM64.3695 29.18C63.6362 29.18 62.9829 29.0467 62.4095 28.78C61.8495 28.5133 61.4095 28.14 61.0895 27.66C60.7829 27.18 60.6295 26.62 60.6295 25.98C60.6295 25.4333 60.7429 24.96 60.9695 24.56C61.2095 24.16 61.5162 23.8467 61.8895 23.62C62.2095 23.42 62.5829 23.28 63.0095 23.2C63.4362 23.1067 63.8829 23.06 64.3495 23.06H67.4495V24.72H64.6695C64.4295 24.72 64.1895 24.7467 63.9495 24.8C63.7095 24.84 63.4962 24.92 63.3095 25.04C63.1762 25.1467 63.0629 25.28 62.9695 25.44C62.8895 25.6 62.8495 25.7867 62.8495 26C62.8495 26.4267 63.0095 26.7667 63.3295 27.02C63.6629 27.26 64.1029 27.38 64.6495 27.38C65.1295 27.38 65.5629 27.2733 65.9495 27.06C66.3495 26.8467 66.6695 26.5533 66.9095 26.18C67.1495 25.8067 67.2695 25.3867 67.2695 24.92L67.9495 26.02C67.7895 26.7133 67.5362 27.3 67.1895 27.78C66.8429 28.2467 66.4295 28.6 65.9495 28.84C65.4695 29.0667 64.9429 29.18 64.3695 29.18ZM71.9484 29V19.14H74.1884V21.8L73.7684 21.86C73.8351 21.2867 74.0284 20.7867 74.3484 20.36C74.6684 19.92 75.0551 19.58 75.5084 19.34C75.9751 19.0867 76.4351 18.96 76.8884 18.96C77.2084 18.96 77.5151 19 77.8084 19.08C78.1018 19.16 78.4084 19.2933 78.7284 19.48L77.6484 21.48C77.5018 21.3867 77.3084 21.3133 77.0684 21.26C76.8418 21.1933 76.6218 21.16 76.4084 21.16C76.1284 21.16 75.8484 21.2133 75.5684 21.32C75.3018 21.4267 75.0618 21.5933 74.8484 21.82C74.6351 22.0333 74.4751 22.3133 74.3684 22.66C74.3018 22.8467 74.2484 23.0933 74.2084 23.4C74.1818 23.6933 74.1684 24.1067 74.1684 24.64V29H71.9484ZM83.4139 29.18C82.7072 29.18 82.0806 29.08 81.5339 28.88C80.9872 28.6667 80.5272 28.4 80.1539 28.08C79.7806 27.76 79.4739 27.44 79.2339 27.12L80.7539 25.8C81.0072 26.2133 81.3539 26.58 81.7939 26.9C82.2472 27.22 82.7939 27.38 83.4339 27.38C83.9672 27.38 84.3872 27.2667 84.6939 27.04C85.0139 26.8133 85.1739 26.5333 85.1739 26.2C85.1739 25.9067 85.0739 25.68 84.8739 25.52C84.6739 25.3467 84.4139 25.2 84.0939 25.08C83.7739 24.96 83.4206 24.8533 83.0339 24.76C82.6606 24.6667 82.2806 24.5533 81.8939 24.42C81.5072 24.2733 81.1472 24.0933 80.8139 23.88C80.4939 23.6667 80.2339 23.3933 80.0339 23.06C79.8339 22.7267 79.7339 22.3133 79.7339 21.82C79.7339 20.9533 80.0672 20.26 80.7339 19.74C81.4006 19.22 82.2739 18.96 83.3539 18.96C84.1272 18.96 84.8339 19.1133 85.4739 19.42C86.1139 19.7267 86.6139 20.1867 86.9739 20.8L85.5939 21.86C85.3272 21.46 84.9939 21.16 84.5939 20.96C84.1939 20.76 83.7606 20.66 83.2939 20.66C82.8672 20.66 82.5072 20.7467 82.2139 20.92C81.9339 21.0933 81.7939 21.32 81.7939 21.6C81.7939 21.8133 81.8606 21.9867 81.9939 22.12C82.1272 22.2533 82.3339 22.3733 82.6139 22.48C82.8939 22.5867 83.2472 22.6933 83.6739 22.8C84.0739 22.8933 84.4872 23.0067 84.9139 23.14C85.3406 23.2733 85.7339 23.4533 86.0939 23.68C86.4672 23.8933 86.7672 24.1867 86.9939 24.56C87.2339 24.92 87.3539 25.3867 87.3539 25.96C87.3539 26.6 87.1872 27.1667 86.8539 27.66C86.5339 28.14 86.0739 28.5133 85.4739 28.78C84.8872 29.0467 84.2006 29.18 83.4139 29.18ZM89.468 29V15.06H91.688V21.32L91.288 21.42C91.4613 20.8467 91.7146 20.38 92.048 20.02C92.3946 19.66 92.788 19.3933 93.228 19.22C93.668 19.0467 94.1346 18.96 94.628 18.96C95.7346 18.96 96.5946 19.28 97.208 19.92C97.8346 20.5467 98.148 21.4467 98.148 22.62V29H95.928V23.44C95.928 22.56 95.768 21.9133 95.448 21.5C95.128 21.0867 94.6346 20.88 93.968 20.88C93.2213 20.88 92.6546 21.1467 92.268 21.68C91.8813 22.2133 91.688 23.0533 91.688 24.2V29H89.468ZM100.14 23.86V22.22H105.1V23.86H100.14ZM106.103 29L111.623 15.06H113.383L118.883 29H116.363L112.503 18.44L108.643 29H106.103ZM109.543 26.08L110.263 24.02H114.723L115.483 26.08H109.543ZM120.525 29V15.06H122.845V29H120.525Z" fill="#5044E5"/>
<g clip-path="url(#clip0_2116_13)">
<path d="M10.6328 8L17.8667 14.1803C18.2962 14.5472 18.5438 15.0856 18.5438 15.6527V20.3104L11.3098 14.1302C10.8803 13.7633 10.6328 13.2248 10.6328 12.6577V8Z" fill="#5044E5"/>
<path d="M10.6328 35.9999L17.8667 29.8196C18.2962 29.4527 18.5438 28.9143 18.5438 28.3472V23.6895L11.3098 29.8697C10.8803 30.2366 10.6328 30.775 10.6328 31.3421V35.9999Z" fill="#5044E5"/>
<path d="M2 14.5166L9.13558 20.5788C9.48152 20.8727 9.91958 21.0339 10.3723 21.0339H16.1268L9.00881 14.9731C8.66261 14.6784 8.22387 14.5166 7.77046 14.5166H2Z" fill="#5044E5"/>
<path d="M2 29.4822L9.09169 23.4235C9.43826 23.1274 9.87793 22.9648 10.3324 22.9648H16.144L9.00839 29.027C8.66242 29.3209 8.22434 29.4822 7.77166 29.4822H2Z" fill="#5044E5"/>
<path d="M28.3719 8L21.1379 14.1803C20.7085 14.5472 20.4609 15.0856 20.4609 15.6527V20.3104L27.6949 14.1302C28.1243 13.7633 28.3719 13.2248 28.3719 12.6577V8Z" fill="#5044E5"/>
<path d="M28.3719 35.9999L21.1379 29.8196C20.7085 29.4527 20.4609 28.9143 20.4609 28.3472V23.6895L27.6949 29.8697C28.1243 30.2366 28.3719 30.775 28.3719 31.3421V35.9999Z" fill="#5044E5"/>
<path d="M37.0019 14.5166L29.8663 20.5788C29.5204 20.8727 29.0822 21.0339 28.6296 21.0339H22.875L29.9931 14.9731C30.3392 14.6784 30.778 14.5166 31.2314 14.5166H37.0019Z" fill="#5044E5"/>
<path d="M36.9994 29.4822L29.9077 23.4235C29.5612 23.1274 29.1214 22.9648 28.6669 22.9648H22.8555L29.991 29.027C30.337 29.3209 30.775 29.4822 31.2277 29.4822H36.9994Z" fill="#5044E5"/>
</g>
<defs>
<clipPath id="clip0_2116_13">
<rect width="35" height="28" fill="white" transform="translate(2 8)"/>
</clipPath>
</defs>
</svg>
